<?xml version="1.0" standalone="no"?>
<!DOCTYPE svg PUBLIC "-//W3C//DTD SVG 20010904//EN"
 "http://www.w3.org/TR/2001/REC-SVG-20010904/DTD/svg10.dtd">
<svg version="1.0" xmlns="http://www.w3.org/2000/svg"
 width="322.000000pt" height="389.000000pt" viewBox="0 0 322.000000 389.000000"
 preserveAspectRatio="xMidYMid meet">

<g transform="translate(0.000000,389.000000) scale(0.100000,-0.100000)"
fill="#000000" stroke="none">
<path d="M192 3828 c-6 -6 -12 -17 -12 -24 0 -7 -15 -24 -32 -39 -18 -14 -41
-33 -50 -41 -33 -26 -19 -144 16 -144 7 0 26 -11 42 -25 25 -22 28 -31 28 -81
-1 -50 -5 -60 -32 -85 -17 -16 -36 -29 -41 -29 -17 0 -31 -37 -31 -84 0 -37 5
-48 26 -63 75 -52 78 -58 78 -116 0 -61 -13 -83 -61 -103 -27 -12 -32 -20 -37
-61 -8 -61 4 -107 30 -111 85 -16 95 -168 13 -202 -38 -16 -49 -37 -49 -98 0
-47 2 -50 45 -78 50 -31 71 -79 59 -131 -8 -32 -51 -83 -71 -83 -30 0 -45
-109 -19 -142 7 -10 18 -18 24 -18 6 0 23 -12 39 -26 23 -22 27 -33 27 -81 0
-58 -3 -63 -78 -116 -21 -14 -26 -26 -26 -60 0 -62 10 -87 35 -93 33 -8 62
-44 68 -84 9 -63 -2 -90 -49 -119 -45 -27 -54 -44 -54 -101 0 -38 23 -80 44
-80 7 0 23 -11 36 -25 20 -21 24 -36 24 -80 -1 -45 -6 -58 -25 -74 -13 -11
-29 -20 -36 -21 -21 0 -43 -43 -43 -82 0 -46 15 -88 32 -88 7 -1 26 -12 43
-25 26 -21 29 -30 29 -78 0 -61 -10 -78 -66 -113 -36 -23 -38 -27 -38 -78 0
-53 1 -55 49 -89 52 -38 68 -77 55 -134 -8 -32 -41 -73 -60 -73 -52 0 -60
-153 -9 -166 27 -7 60 -40 69 -70 15 -49 166 -45 166 4 0 25 40 58 77 65 60
12 92 -2 130 -54 34 -48 36 -49 88 -49 47 0 57 4 72 26 53 75 58 78 116 78 45
0 61 -4 82 -24 14 -13 25 -29 25 -36 0 -26 32 -44 75 -44 58 0 95 15 95 38 0
10 11 29 25 42 19 18 36 23 80 23 59 0 79 -14 111 -75 13 -26 19 -28 75 -28
l60 0 27 45 c29 49 52 60 120 59 35 -1 49 -7 68 -29 13 -15 24 -36 24 -45 0
-23 20 -30 79 -30 52 0 66 8 101 62 18 27 33 38 60 42 66 10 98 -5 137 -67 24
-38 24 -38 85 -35 60 3 62 4 83 43 41 72 141 84 190 21 50 -64 53 -66 105 -66
49 0 90 23 90 50 0 17 33 47 60 53 14 4 42 4 64 0 31 -5 44 -15 73 -54 35 -49
35 -49 92 -49 l58 0 30 48 c23 37 38 51 62 55 l32 7 -3 72 c-3 68 -5 74 -30
86 -15 7 -38 26 -52 43 -47 55 -27 128 46 169 38 21 38 21 38 86 0 59 -2 65
-24 73 -104 40 -111 175 -11 217 l35 14 0 71 c0 70 0 70 -33 84 -45 19 -68 47
-74 93 -6 47 19 88 72 116 35 19 35 20 35 87 0 65 -1 69 -25 75 -37 9 -85 69
-85 105 0 44 29 87 72 107 l37 17 1 66 c0 65 0 66 -36 85 -95 51 -97 165 -3
212 33 17 34 18 37 87 l3 71 -33 9 c-37 11 -78 65 -78 103 0 36 34 86 75 108
35 18 35 19 35 86 l0 68 -39 16 c-42 17 -71 60 -71 107 0 32 40 91 65 96 38 6
45 21 45 93 0 57 -3 70 -17 74 -41 13 -61 27 -76 54 -34 57 -12 124 54 159 33
18 34 21 37 85 3 61 1 67 -20 75 -29 11 -75 57 -84 83 -16 51 30 130 81 140
17 3 20 12 23 74 3 70 2 71 -26 83 -29 12 -56 39 -78 77 -8 14 -24 20 -59 22
-71 5 -88 -3 -113 -47 -16 -29 -31 -42 -55 -47 -65 -15 -118 5 -140 54 -16 37
-25 42 -84 42 -58 0 -83 -7 -83 -24 -1 -19 -44 -62 -76 -75 -47 -19 -101 4
-137 57 -28 41 -29 42 -87 42 -52 0 -61 -3 -77 -26 -50 -73 -97 -94 -157 -69
-24 10 -42 28 -56 55 l-20 40 -70 0 c-69 0 -70 0 -83 -32 -17 -40 -31 -52 -78
-67 -51 -16 -97 5 -128 59 l-23 41 -66 -3 c-64 -3 -67 -4 -92 -42 -34 -50 -76
-68 -126 -54 -40 10 -73 42 -74 69 0 22 -20 29 -81 29 -54 0 -89 -13 -89 -34
0 -18 -41 -54 -77 -66 -44 -16 -95 8 -129 59 -26 41 -27 41 -89 41 -60 0 -62
-1 -86 -37 -13 -20 -39 -46 -57 -56 -30 -18 -38 -18 -73 -7 -40 14 -64 34 -83
73 -10 19 -21 22 -76 25 -42 2 -70 -2 -78 -10z"/>
</g>
</svg>
